<svg width="102" height="102" viewBox="0 0 102 102" fill="none" xmlns="http://www.w3.org/2000/svg">
<path d="M36.6796 15.686C38.5941 11.4129 41.0736 7.44609 44.0445 3.90379C45.6994 2.08694 51.1116 -0.681545 54.2931 2.34928C56.7095 4.95949 58.9563 7.73789 61.0182 10.6655C63.2049 13.4772 65.2105 16.4398 67.0214 19.5333C70.2523 24.4749 72.95 29.7796 75.0648 35.3496C75.6959 38.6348 74.2905 41.9819 71.557 43.7035C68.9755 45.6907 65.4679 45.6907 62.8864 43.7035C60.6644 41.4517 58.6374 38.9962 56.8293 36.3659C56.4258 35.8605 56.0328 35.3468 55.6471 34.8249C55.7013 35.7226 55.5393 36.6175 55.1694 37.4312C53.6659 40.5403 47.429 44.7851 46.3266 45.5231C43.3851 47.5392 40.2104 49.151 36.8797 50.3193C35.8844 50.5538 34.8425 50.42 33.9298 49.9408C32.4546 49.1648 30.2473 46.1394 29.5868 44.6039C28.5274 41.0806 27.8884 37.4326 27.6851 33.7436C27.0066 23.7267 28.6872 21.4339 28.6872 21.4339C29.4822 19.6311 31.3428 18.6304 33.1974 19.0089C33.8116 19.0899 34.4155 19.2388 34.9987 19.4576C35.2865 18.8683 35.5717 18.2032 35.8595 17.5299C36.1296 16.9055 36.3993 16.2702 36.6793 15.6888L36.6796 15.686Z" fill="#00034A"/>
<path d="M56.688 87.748C54.0202 83.4264 55.6561 77.6191 60.1317 75.5251C63.1423 74.8126 66.2058 74.3747 69.2879 74.2164C68.8549 73.785 68.4919 73.2818 68.2138 72.7268C67.0908 70.4828 67.7229 63.121 67.7229 59.947C67.7459 56.2971 68.201 52.6689 69.0746 49.1379C69.812 46.9711 71.9348 45.6872 74.0856 46.107C77.4626 47.0967 80.7108 48.5215 83.7586 50.3518C87.2664 52.4335 93.6935 56.3728 95.2841 61.0228C96.2632 62.7031 96.0471 64.8657 94.7574 66.2949C94.3492 66.796 93.8965 67.2548 93.4057 67.6656L93.5805 67.9549C94.2254 69.023 94.8859 70.1098 95.4589 71.1993C97.8384 75.2077 99.6527 79.5579 100.845 84.1144C101.372 86.4072 100.722 92.7579 96.2606 93.9204C90.6944 95.0829 85.0229 95.5965 79.3486 95.4479C73.6675 95.5965 67.988 95.0842 62.4136 93.9204C60.0443 92.8118 58.0861 90.0081 56.6907 87.748H56.688Z" fill="#00034A"/>
<path d="M26.8577 50.8519C24.1845 49.0155 20.6901 49.2068 18.2127 51.3251C14.4608 55.8122 11.2 60.7284 8.49107 65.9813C5.50582 71.0858 3.06926 76.5237 1.22614 82.1947C-0.0510149 86.6069 5.53565 93.1687 9.34434 94.3447C13.6847 95.5425 18.1638 96.0751 22.6481 95.9262H25.2592C26.0508 97.1969 27.477 99.3113 28.5794 100.155C29.3246 100.722 30.2242 101.014 31.1416 100.985C31.1416 100.985 33.8243 101.512 42.0168 96.3724C45.0531 94.5182 47.8492 92.2589 50.3355 89.6512C51.0288 88.8152 51.4111 87.7435 51.4122 86.6341C51.4122 84.3468 49.4076 82.1622 48.0535 80.5348C45.6031 77.8984 42.8411 75.6042 39.8351 73.7081C38.8586 73.0917 33.9196 70.0529 30.4374 69.2579C31.4731 66.9329 32.3543 64.5374 33.0713 62.08C33.3285 60.4578 33.0844 58.7923 32.3776 57.327C31.3187 55.1372 28.934 51.9494 26.8577 50.8546V50.8519Z" fill="#00034A"/>
<path d="M36.6796 15.686C38.5941 11.4129 41.0736 7.44609 44.0445 3.90379C45.6994 2.08694 51.1116 -0.681545 54.2931 2.34928C56.7095 4.95949 58.9563 7.73789 61.0182 10.6655C63.2049 13.4772 65.2105 16.4398 67.0214 19.5333C70.2523 24.4749 72.95 29.7796 75.0648 35.3496C75.6959 38.6348 74.2905 41.9819 71.557 43.7035C68.9755 45.6907 65.4679 45.6907 62.8864 43.7035C60.6644 41.4517 58.6374 38.9962 56.8293 36.3659C56.4258 35.8605 56.0328 35.3468 55.6471 34.8249C55.7013 35.7226 55.5393 36.6175 55.1694 37.4312C53.6659 40.5403 47.429 44.7851 46.3266 45.5231C43.3851 47.5392 40.2104 49.151 36.8797 50.3193C35.8844 50.5538 34.8425 50.42 33.9298 49.9408C32.4546 49.1648 30.2473 46.1394 29.5868 44.6039C28.5274 41.0806 27.8884 37.4326 27.6851 33.7436C27.0066 23.7267 28.6872 21.4339 28.6872 21.4339C29.4822 19.6311 31.3428 18.6304 33.1974 19.0089C33.8116 19.0899 34.4155 19.2388 34.9987 19.4576C35.2865 18.8683 35.5717 18.2032 35.8595 17.5299C36.1296 16.9055 36.3993 16.2702 36.6793 15.6888L36.6796 15.686Z" stroke="#00034A" stroke-miterlimit="10"/>
<path d="M56.688 87.748C54.0202 83.4264 55.6561 77.6191 60.1317 75.5251C63.1423 74.8126 66.2058 74.3747 69.2879 74.2164C68.8549 73.785 68.4919 73.2818 68.2138 72.7268C67.0908 70.4828 67.7229 63.121 67.7229 59.947C67.7459 56.2971 68.201 52.6689 69.0746 49.1379C69.812 46.9711 71.9348 45.6872 74.0856 46.107C77.4626 47.0967 80.7108 48.5215 83.7586 50.3518C87.2664 52.4335 93.6935 56.3728 95.2841 61.0228C96.2632 62.7031 96.0471 64.8657 94.7574 66.2949C94.3492 66.796 93.8965 67.2548 93.4057 67.6656L93.5805 67.9549C94.2254 69.023 94.8859 70.1098 95.4589 71.1993C97.8384 75.2077 99.6527 79.5579 100.845 84.1144C101.372 86.4072 100.722 92.7579 96.2606 93.9204C90.6944 95.0829 85.0229 95.5965 79.3486 95.4479C73.6675 95.5965 67.988 95.0842 62.4136 93.9204C60.0443 92.8118 58.0861 90.0081 56.6907 87.748H56.688Z" stroke="#00034A" stroke-miterlimit="10"/>
<path d="M26.8577 50.8519C24.1845 49.0155 20.6901 49.2068 18.2127 51.3251C14.4608 55.8122 11.2 60.7284 8.49107 65.9813C5.50582 71.0858 3.06926 76.5237 1.22614 82.1947C-0.0510149 86.6069 5.53565 93.1687 9.34434 94.3447C13.6847 95.5425 18.1638 96.0751 22.6481 95.9262H25.2592C26.0508 97.1969 27.477 99.3113 28.5794 100.155C29.3246 100.722 30.2242 101.014 31.1416 100.985C31.1416 100.985 33.8243 101.512 42.0168 96.3724C45.0531 94.5182 47.8492 92.2589 50.3355 89.6512C51.0288 88.8152 51.4111 87.7435 51.4122 86.6341C51.4122 84.3468 49.4076 82.1622 48.0535 80.5348C45.6031 77.8984 42.8411 75.6042 39.8351 73.7081C38.8586 73.0917 33.9196 70.0529 30.4374 69.2579C31.4731 66.9329 32.3543 64.5374 33.0713 62.08C33.3285 60.4578 33.0844 58.7923 32.3776 57.327C31.3187 55.1372 28.934 51.9494 26.8577 50.8546V50.8519Z" stroke="#00034A" stroke-miterlimit="10"/>
<path d="M98.5658 81.0323C97.3734 76.4759 95.5591 72.1257 93.1796 68.1173C92.5524 66.9303 91.8252 65.746 91.1237 64.5863C91.6146 64.1747 92.0673 63.7148 92.4755 63.2129C93.766 61.7839 93.9821 59.6208 93.0022 57.9408C92.0223 56.2607 92.1029 55.3074 83.7586 50.3518C80.7127 48.5234 77.4639 47.0978 74.0859 46.107C71.9351 45.6883 69.813 46.972 69.0746 49.1379C68.1999 52.6681 67.7459 56.299 67.7229 59.947C67.7229 61.3418 67.7229 69.1446 69.3523 72.1752C69.8379 73.0324 70.5496 73.7217 71.4055 74.1545C67.612 74.1908 63.8331 74.6502 60.1317 75.5251C54.5294 78.1493 53.7279 86.1699 58.6892 89.9621C59.1398 90.3065 59.623 90.6 60.1317 90.8384C65.7055 92.0036 71.3874 92.5145 77.0667 92.3686C82.7405 92.517 88.4124 92.0039 93.9787 90.8384C98.4399 89.6783 99.0928 83.3276 98.5658 81.0323Z" fill="#9BFF00" stroke="#00034A" stroke-miterlimit="10"/>
<path d="M69.3522 72.0969C70.2387 73.8719 72.1587 74.7856 74.0113 74.3138C74.6162 74.1742 75.2105 73.9881 75.7895 73.7569C76.3908 74.9978 77.0436 76.236 77.6679 77.3958" stroke="#00034A" stroke-miterlimit="10" stroke-linecap="round"/>
<path d="M44.0447 3.90379C41.0736 7.44692 38.5938 11.4145 36.6795 15.6888C36.1013 16.9 35.5513 18.3249 34.9989 19.4576C34.4149 19.2394 33.8099 19.0888 33.1948 19.0089C31.3404 18.6304 29.4795 19.6311 28.6849 21.4339C27.8902 23.2367 27.0066 23.7267 27.6825 33.7436C27.8881 37.434 28.5281 41.0812 29.5894 44.6039C30.4542 46.6217 32.5472 47.7229 34.6004 47.24C37.93 46.0715 41.1039 44.4597 44.0447 42.4438C45.1497 41.7055 51.3865 37.461 52.8898 34.3492C53.2977 33.4474 53.4536 32.4424 53.3395 31.4508C55.4362 34.7787 57.8733 37.8549 60.6071 40.6242C63.1881 42.6101 66.694 42.6101 69.275 40.6242C72.0091 38.9029 73.4147 35.5555 72.7828 32.27C70.6681 26.7 67.9704 21.3953 64.7392 16.4538C61.7607 11.3628 58.2574 6.63236 54.293 2.34929C51.1115 -0.681545 45.6994 2.08694 44.0447 3.90379Z" fill="#9BFF00" stroke="#00034A" stroke-miterlimit="10"/>
<path d="M52.9876 34.4546C53.8875 32.7143 53.5709 30.5561 52.2139 29.1825C51.7652 28.7277 51.2877 28.3049 50.7853 27.9173C51.4355 26.706 52.0881 25.4678 52.6637 24.2808" stroke="#00034A" stroke-miterlimit="10" stroke-linecap="round"/>
<path d="M7.0648 91.26C11.4026 92.4605 15.8845 92.9901 20.3688 92.8415H24.3264C24.4161 93.4958 24.5577 94.1394 24.7529 94.7665C25.2875 96.6717 26.9747 97.9595 28.862 97.9028C30.7494 97.8461 31.5424 98.4299 39.7349 93.2905C42.7712 91.4359 45.567 89.177 48.0536 86.5692C49.4903 84.8408 49.4903 82.2606 48.0536 80.5321C45.6031 77.896 42.8411 75.6015 39.8352 73.7054C38.7095 72.9944 32.3185 69.0661 28.9622 69.0661C28.0161 69.0865 27.0951 69.3885 26.3051 69.9368C28.1749 66.4727 29.6787 62.8035 30.7894 58.9953C31.3166 55.6677 29.7229 52.3665 26.8577 50.852C24.1848 49.0147 20.6898 49.2061 18.2127 51.3252C14.4608 55.8122 11.1998 60.7284 8.4911 65.9813C5.50584 71.0858 3.06929 76.5237 1.22616 82.1948C-0.102273 86.7829 4.75724 90.5517 7.06218 91.2628L7.0648 91.26Z" fill="#9BFF00" stroke="#00034A" stroke-miterlimit="10"/>
<path d="M28.9109 69.0662C27.0233 69.0095 25.3364 70.297 24.8018 72.2025C24.6115 72.8323 24.4676 73.4732 24.3776 74.1272C23.0492 74.1272 21.7205 73.9948 20.42 73.9948" stroke="#00034A" stroke-miterlimit="10" stroke-linecap="round"/>
</svg>
